<svg xmlns="http://www.w3.org/2000/svg" viewBox="0 0 120 120" width="120" height="120">
  <circle cx="60" cy="60" r="58" fill="#8bbdd4"/>
  <g transform="translate(60,62)">
    <path d="M-3.5-28C-11.5-28-19-24.5-23.5-18.5C-28-12.5-29-4.5-27 4C-25 11-21 19-17 27C-13 35-9.5 41-7 45.5C-4.5 50-3 52-1.5 53.5C0 55 1 55 2 53.5C3 52 4.5 50 7 45.5C9.5 41 13 35 17 27C21 19 25 11 27 4C29-4.5 28-12.5 23.5-18.5C19-24.5 11.5-28 3.5-28Z" fill="white"/>
  </g>
  <path d="M68 45c-3.5-3.5-8-5-12.5-2.5c-4.5 2.5-5.5 7-4 11.5c1 2.5 2.5 5 5 7c2.5 2.5 5 4.5 7 5.5c1 .5 2 .5 3 0c2-1 4.5-3 7-5.5c2.5-2 4-4.5 5-7c1.5-4.5.5-9-4-11.5C70.5 40 66 41.5 68 45z" fill="#c62828"/>
</svg>
